<?xml version="1.0" encoding="UTF-8"?>
<svg id="Layer_1" data-name="Layer 1" xmlns="http://www.w3.org/2000/svg" viewBox="0 0 475.56 290.18">
  <defs>
    <style>
      .cls-1 {
        fill: #fff;
      }

      .cls-2 {
        fill: #2c5cf3;
      }
    </style>
  </defs>
  <path class="cls-1" d="M278.7,32.05c-.11-15.99-1.36-31.65,15.25-31.94,16.61-.29,24.9.11,38.85.02,13.95-.09,12.42,21.43,12.37,31.58,40.06,9.02,71.64,38.7,84.77,77.33,13.21,3.65,42.87-6.97,44.81,12.82,1.04,10.64,1.15,35.75-.06,46.23-2.14,18.5-32.08,7.93-44.5,10.97-12.2,39.99-44.52,68.2-84.57,78.97-2.32,9.46,3.9,28.6-9.93,30.42-8.48,1.11-39.25,1.13-47.53-.16-4.69-.73-9.46-6.54-9.46-10.72v-55.47h-46.83c-4.36,0-9.22-3.66-9.38-13.69s5.02-13.69,9.38-13.69h46.83v-102.3h-43.95c-4.23,0-12.21,1.83-12.22-12.37,0-14.21,4.98-15.01,9.34-15h46.83s.11-16.99,0-32.98Z"/>
  <path class="cls-2" d="M195.24,66.33h-49.32c-4.41,0-9.58,2.71-9.42,13.58s5.02,13.58,9.42,13.58h49.32v102.92h-47.89c-4.75,0-10.72,1.54-10.88,13.56s5.4,15.03,10.88,15.03h47.89v55.03c0,7-5.54,8.59-9.38,9.2-8.46,1.34-36.83,1.16-45.68.12-14.97-1.76-9.71-20.71-10.84-31.33-38.84-8.84-72.31-38.44-82.9-77.19-14.84-2.87-43.68,8.28-45.67-13.65-.93-10.22-1.13-33,.04-42.98,2.3-19.71,32.29-9.63,45.63-12.26,10.62-39.02,43.96-67.88,82.84-77.25,1.08-14.83-4.57-30.49,15.21-32.68,8.38-.93,20.26-.83,35.3.11,15.04.94,15.45,6.18,15.45,30.91v33.31Z"/>
</svg>